<svg xmlns="http://www.w3.org/2000/svg" xmlns:xlink="http://www.w3.org/1999/xlink" width="107" height="21" viewBox="0 0 107 21">
  <defs>
    <style>
      .cls-1 {
        fill: none;
      }

      .cls-2 {
        clip-path: url(#clip-path);
      }

      .cls-3 {
        fill: #a6214b;
      }

      .cls-4 {
        fill: #575756;
      }
    </style>
    <clipPath id="clip-path">
      <rect class="cls-1" width="107" height="21"/>
    </clipPath>
  </defs>
  <g id="Symbol_100_1" data-name="Symbol 100 – 1" class="cls-2">
    <g id="Gruppe_882" data-name="Gruppe 882" transform="translate(56.313 6.019)">
      <path id="Pfad_458" data-name="Pfad 458" class="cls-3" d="M44,18.114a4.487,4.487,0,0,1-3-1.09l.953-1.226a3.915,3.915,0,0,0,2.451.953,1.7,1.7,0,0,0,1.907-1.362c.272-.953-.681-1.362-1.634-1.77-1.089-.545-2.451-1.226-2.043-3.132A3.745,3.745,0,0,1,46.311,7.9a5.135,5.135,0,0,1,2.86.953l-.817,1.09a4.115,4.115,0,0,0-2.179-.681,1.64,1.64,0,0,0-1.77,1.362c-.272.953.817,1.362,1.634,1.77,1.09.545,2.315,1.226,2.043,3C47.673,17.161,45.63,18.114,44,18.114Z" transform="translate(-41 -3.133)"/>
      <path id="Pfad_459" data-name="Pfad 459" class="cls-3" d="M49.97,18.91c-1.5,0-2.043-.953-1.634-2.588L49.7,10.194H48.2l.272-1.362h1.362L51.2,5.7h.953l-.681,3.132h2.588l-.272,1.226H51.2L49.97,15.914c-.136.953-.272,1.634.409,1.634a2.87,2.87,0,0,0,1.5-.681l.545,1.089A4.242,4.242,0,0,1,49.97,18.91Z" transform="translate(-38.394 -3.93)"/>
      <path id="Pfad_460" data-name="Pfad 460" class="cls-3" d="M59.564,18.078a1.324,1.324,0,0,1-1.5-1.362,4.073,4.073,0,0,1-2.86,1.362c-1.77,0-2.588-1.09-2.179-3L54.526,8H56.16l-1.5,7.082c-.272,1.09.272,1.634,1.09,1.634a3.9,3.9,0,0,0,2.588-1.5L59.837,8h1.634l-1.5,7.354c-.136.817-.136,1.362.409,1.362a1.968,1.968,0,0,0,.953-.272l.272,1.09A5.707,5.707,0,0,1,59.564,18.078Z" transform="translate(-36.685 -3.097)"/>
      <path id="Pfad_461" data-name="Pfad 461" class="cls-3" d="M67.288,19.272a1.328,1.328,0,0,1-1.5-1.362A3.6,3.6,0,0,1,63.2,19.272c-2.451,0-3-2.315-2.451-5.039s2.315-5.175,4.63-5.175a1.807,1.807,0,0,1,1.77.953L68.242,4.7h1.634L67.288,16.548c-.136.817-.136,1.362.409,1.362a1.968,1.968,0,0,0,.953-.272l.272,1.09A2.171,2.171,0,0,1,67.288,19.272Zm-.409-7.627a1.53,1.53,0,0,0-1.634-1.226c-1.5,0-2.315,1.907-2.724,3.813s-.409,3.813,1.089,3.813a2.936,2.936,0,0,0,2.179-1.5Z" transform="translate(-33.922 -4.291)"/>
      <path id="Pfad_462" data-name="Pfad 462" class="cls-3" d="M68.536,19.244l1.907-8.716H68.4l.272-1.09,3.541-.272-2.179,9.942-1.5.136Zm3.4-12.393a.955.955,0,0,1-.953-1.226,1.6,1.6,0,0,1,1.5-1.226.955.955,0,0,1,.953,1.226A1.905,1.905,0,0,1,71.941,6.851Z" transform="translate(-31.085 -4.4)"/>
      <path id="Pfad_463" data-name="Pfad 463" class="cls-3" d="M75.289,18.078c-2.724,0-3.4-2.179-2.724-5.039C73.11,10.315,75.017,8,77.468,8s3.269,2.179,2.724,5.039C79.511,15.627,77.74,18.078,75.289,18.078ZM77.2,9.09c-1.634,0-2.588,1.907-2.86,3.813-.409,1.907-.545,3.813,1.362,3.813,1.634,0,2.451-2.043,2.86-3.813C78.694,11,78.694,9.09,77.2,9.09Z" transform="translate(-29.666 -3.097)"/>
    </g>
    <g id="Gruppe_883" data-name="Gruppe 883">
      <path id="Pfad_464" data-name="Pfad 464" class="cls-4" d="M4.63,20.864H0V0H4.222C10.9,0,14.708,4.364,14.708,10.636,14.844,16.364,10.9,20.864,4.63,20.864Zm0-17.591H4.086V17.591H4.63c3.813,0,5.72-3,5.72-6.818C10.486,6.546,8.444,3.273,4.63,3.273Z"/>
      <path id="Pfad_465" data-name="Pfad 465" class="cls-4" d="M18.73,20.864H14.1V0h4.222C25,0,28.808,4.364,28.808,10.636,28.808,16.364,24.859,20.864,18.73,20.864Zm0-17.591h-.545V17.591h.545c3.813,0,5.72-3,5.72-6.818C24.45,6.546,22.544,3.273,18.73,3.273Z" transform="translate(5.102)"/>
      <path id="Pfad_466" data-name="Pfad 466" class="cls-4" d="M35.182,20.864H28.1V0h6.673c3.949,0,6.809,2.318,6.809,5.591a4.439,4.439,0,0,1-3.269,4.227,5.363,5.363,0,0,1,3.677,4.909C41.991,18.273,39.267,20.864,35.182,20.864ZM34.365,3.273H32.186V8.455h2.179c1.77,0,2.86-.955,2.86-2.591A2.584,2.584,0,0,0,34.365,3.273Zm0,8.318H32.186v6H34.5c1.907,0,3.132-1.091,3.132-2.864C37.769,12.818,36.407,11.591,34.365,11.591Z" transform="translate(10.169)"/>
    </g>
  </g>
</svg>
