<svg xmlns="http://www.w3.org/2000/svg" width="278.136" height="44" viewBox="0 0 278.136 44">
  <defs>
    <style>
      .cls-1 {
        fill: none;
        stroke: #fff;
        stroke-linecap: round;
        stroke-width: 3px;
      }

      .cls-2 {
        fill: #a6214b;
      }

      .cls-3 {
        fill: #fff;
      }
    </style>
  </defs>
  <g id="Gruppe_2341" data-name="Gruppe 2341" transform="translate(-115.067 -8.557)">
    <g id="Gruppe_802" data-name="Gruppe 802" transform="translate(367.789 26.872)">
      <path id="Pfad_364" data-name="Pfad 364" class="cls-1" d="M0,0,11.417,11.727,23.145,0" transform="translate(11.55 23.145) rotate(-90)"/>
      <path id="Pfad_365" data-name="Pfad 365" class="cls-1" d="M0,0,11.417,11.727,23.145,0" transform="translate(0 23.145) rotate(-90)"/>
    </g>
    <g id="Gruppe_882" data-name="Gruppe 882" transform="translate(227.526 22.823)">
      <path id="Pfad_458" data-name="Pfad 458" class="cls-2" d="M46.947,28.173A8.906,8.906,0,0,1,41,26.011l1.892-2.433a7.771,7.771,0,0,0,4.866,1.892c1.892,0,3.514-.811,3.784-2.7.541-1.892-1.352-2.7-3.244-3.514-2.162-1.081-4.866-2.433-4.055-6.217.811-3.514,4.6-5.136,7.3-5.136a10.193,10.193,0,0,1,5.677,1.892L55.6,11.955A8.168,8.168,0,0,0,51.272,10.6a3.255,3.255,0,0,0-3.514,2.7C47.217,15.2,49.38,16.009,51,16.82c2.162,1.081,4.6,2.433,4.055,5.947C54.245,26.281,50.191,28.173,46.947,28.173Z" transform="translate(-41 1.561)"/>
      <path id="Pfad_459" data-name="Pfad 459" class="cls-2" d="M51.714,31.92c-2.973,0-4.055-1.892-3.244-5.136l2.7-12.164H48.2l.541-2.7h2.7l2.7-6.217h1.892l-1.352,6.217h5.136l-.541,2.433H54.147L51.714,25.973c-.27,1.892-.541,3.244.811,3.244A5.7,5.7,0,0,0,55.5,27.866l1.081,2.162A8.42,8.42,0,0,1,51.714,31.92Z" transform="translate(-28.738 -2.186)"/>
      <path id="Pfad_460" data-name="Pfad 460" class="cls-2" d="M66.1,28c-1.622,0-2.973-.811-2.973-2.7A8.084,8.084,0,0,1,57.454,28c-3.514,0-5.136-2.162-4.325-5.947L56.1,8h3.244L56.373,22.056c-.541,2.162.541,3.244,2.162,3.244,1.892,0,4.055-1.622,5.136-2.973L66.645,8h3.244L66.915,22.6c-.27,1.622-.27,2.7.811,2.7a3.907,3.907,0,0,0,1.892-.541l.541,2.162A11.328,11.328,0,0,1,66.1,28Z" transform="translate(-20.692 1.731)"/>
      <path id="Pfad_461" data-name="Pfad 461" class="cls-2" d="M73.916,33.623c-1.892,0-2.973-1.081-2.973-2.7-.811.811-2.433,2.7-5.136,2.7-4.866,0-5.947-4.6-4.866-10s4.6-10.272,9.191-10.272a3.587,3.587,0,0,1,3.514,1.892L75.809,4.7h3.244L73.916,28.217c-.27,1.622-.27,2.7.811,2.7a3.907,3.907,0,0,0,1.892-.541l.541,2.162A4.309,4.309,0,0,1,73.916,33.623Zm-.811-15.137a3.037,3.037,0,0,0-3.244-2.433c-2.973,0-4.6,3.784-5.406,7.569s-.811,7.569,2.162,7.569c1.892,0,3.784-1.892,4.325-2.973Z" transform="translate(-7.69 -3.889)"/>
      <path id="Pfad_462" data-name="Pfad 462" class="cls-2" d="M68.67,33.864l3.784-17.3H68.4l.541-2.162,7.028-.541L71.644,33.594l-2.973.27Zm6.758-24.6a1.9,1.9,0,0,1-1.892-2.433A3.167,3.167,0,0,1,76.509,4.4,1.9,1.9,0,0,1,78.4,6.833,3.782,3.782,0,0,1,75.428,9.266Z" transform="translate(5.665 -4.4)"/>
      <path id="Pfad_463" data-name="Pfad 463" class="cls-2" d="M78.213,28c-5.406,0-6.758-4.325-5.406-10C73.888,12.6,77.673,8,82.538,8s6.487,4.325,5.406,10C86.593,23.137,83.079,28,78.213,28ZM82,10.162c-3.244,0-5.136,3.784-5.677,7.569-.811,3.784-1.081,7.569,2.7,7.569,3.244,0,4.866-4.055,5.677-7.569C84.971,13.947,84.971,10.162,82,10.162Z" transform="translate(12.341 1.731)"/>
    </g>
    <g id="Gruppe_883" data-name="Gruppe 883" transform="translate(115.067 8.557)">
      <path id="Pfad_464" data-name="Pfad 464" class="cls-3" d="M9.191,43.73H0V0H8.38C21.625,0,29.194,9.146,29.194,22.294,29.464,34.3,21.625,43.73,9.191,43.73Zm0-36.87H8.109V36.87H9.191c7.569,0,11.353-6.288,11.353-14.291C20.814,13.719,16.759,6.86,9.191,6.86Z"/>
      <path id="Pfad_465" data-name="Pfad 465" class="cls-3" d="M23.291,43.73H14.1V0h8.38C35.725,0,43.294,9.146,43.294,22.294,43.294,34.3,35.455,43.73,23.291,43.73Zm0-36.87H22.209V36.87h1.081c7.569,0,11.353-6.288,11.353-14.291C34.644,13.719,30.859,6.86,23.291,6.86Z" transform="translate(24.014)"/>
      <path id="Pfad_466" data-name="Pfad 466" class="cls-3" d="M42.156,43.73H28.1V0H41.345c7.839,0,13.516,4.859,13.516,11.718a9.219,9.219,0,0,1-6.487,8.86,11.164,11.164,0,0,1,7.3,10.289C55.672,38.3,50.266,43.73,42.156,43.73ZM40.534,6.86H36.209V17.721h4.325c3.514,0,5.677-2,5.677-5.43C46.211,9.146,44.048,6.86,40.534,6.86Zm0,17.435H36.209V36.87h4.6c3.784,0,6.217-2.287,6.217-6C47.292,26.867,44.589,24.294,40.534,24.294Z" transform="translate(47.857)"/>
    </g>
  </g>
</svg>
