<svg xmlns="http://www.w3.org/2000/svg" width="47" height="47" viewBox="0 0 47 47">
  <defs>
    <style>
      .cls-1 {
        fill: rgba(0,0,0,0.5);
      }
      .cls-2 {
        fill: none;
        stroke: #000;
        stroke-linecap: square;
        stroke-width: 2px;
      }
    </style>
  </defs>
  <g id="Symbol_115_1" data-name="Symbol 115 – 1" transform="translate(-131 -360)">
    <rect id="Rechteck_348" data-name="Rechteck 348" class="cls-1" width="47" height="47" transform="translate(131 360)"/>
    <g id="Gruppe_579" data-name="Gruppe 579" transform="translate(89.5 328.5)">
      <line id="Linie_78" data-name="Linie 78" class="cls-2" x2="10" transform="translate(52.5 32.5) rotate(180)"/>
      <line id="Linie_79" data-name="Linie 79" class="cls-2" x2="10" transform="translate(52.5 77.5) rotate(180)"/>
      <line id="Linie_80" data-name="Linie 80" class="cls-2" y1="45" transform="translate(42.5 77.5) rotate(180)"/>
    </g>
    <g id="Gruppe_580" data-name="Gruppe 580" transform="translate(219.5 438.5) rotate(180)">
      <line id="Linie_78-2" data-name="Linie 78" class="cls-2" x2="10" transform="translate(52.5 32.5) rotate(180)"/>
      <line id="Linie_79-2" data-name="Linie 79" class="cls-2" x2="10" transform="translate(52.5 77.5) rotate(180)"/>
      <line id="Linie_80-2" data-name="Linie 80" class="cls-2" y1="45" transform="translate(42.5 77.5) rotate(180)"/>
    </g>
    <path id="Pfad_1330" data-name="Pfad 1330" d="M5.266,15.821l2.922-.354a2.766,2.766,0,0,0,.752,1.708,2.057,2.057,0,0,0,1.482.591A2.036,2.036,0,0,0,12,17.057a2.749,2.749,0,0,0,.639-1.912,2.563,2.563,0,0,0-.612-1.8,1.952,1.952,0,0,0-1.493-.666,5.266,5.266,0,0,0-1.386.226l.333-2.46a2.646,2.646,0,0,0,1.869-.532,1.893,1.893,0,0,0,.645-1.5,1.627,1.627,0,0,0-1.729-1.74,1.819,1.819,0,0,0-1.321.537,2.523,2.523,0,0,0-.666,1.568L5.491,8.3a6.218,6.218,0,0,1,.875-2.283A3.952,3.952,0,0,1,8,4.676a5.484,5.484,0,0,1,2.347-.489,4.682,4.682,0,0,1,3.566,1.418A3.7,3.7,0,0,1,15.02,8.227a3.709,3.709,0,0,1-2.267,3.309,3.667,3.667,0,0,1,2.165,1.3,3.772,3.772,0,0,1,.811,2.438,4.73,4.73,0,0,1-1.515,3.534,5.217,5.217,0,0,1-3.771,1.461A5.191,5.191,0,0,1,6.9,19.039,4.834,4.834,0,0,1,5.266,15.821Zm13-11.569h5.812a11.348,11.348,0,0,1,3,.3A5.266,5.266,0,0,1,29.446,6a6.88,6.88,0,0,1,1.5,2.551,11.622,11.622,0,0,1,.516,3.722,10.35,10.35,0,0,1-.483,3.352A6.943,6.943,0,0,1,29.3,18.41a5.59,5.59,0,0,1-2.234,1.257A9.62,9.62,0,0,1,24.247,20H18.264Zm3.18,2.664V17.347h2.374a8.664,8.664,0,0,0,1.923-.15,2.935,2.935,0,0,0,1.284-.655,3.334,3.334,0,0,0,.833-1.52,10.273,10.273,0,0,0,.322-2.884,9.408,9.408,0,0,0-.322-2.8,3.6,3.6,0,0,0-.9-1.525,3.026,3.026,0,0,0-1.472-.741,14.416,14.416,0,0,0-2.61-.15Z" transform="translate(136 372)"/>
  </g>
</svg>
