<svg xmlns="http://www.w3.org/2000/svg" width="14" height="28.222" viewBox="0 0 14 28.222">
  <g id="Symbol_105_1" data-name="Symbol 105 – 1" transform="translate(-41 -1284.478)">
    <path id="Pfad_1327" data-name="Pfad 1327" d="M10.444,18.889A4.467,4.467,0,0,0,12.222,18,4.747,4.747,0,0,0,14,14.222a5.065,5.065,0,0,0-.667-2.444,3.921,3.921,0,0,0-2-1.778A21.687,21.687,0,0,0,7.556,8.444,12.693,12.693,0,0,1,4.222,7.111c-.667-.667-1.111-1.111-1.111-2A2.735,2.735,0,0,1,4.222,2.889,4.1,4.1,0,0,1,7.111,2a4.344,4.344,0,0,1,3.111.889,3.68,3.68,0,0,1,1.111,2.889H14a4.466,4.466,0,0,0-.889-2.889A7.925,7.925,0,0,0,10.667.667,6.394,6.394,0,0,0,7.111,0,6.6,6.6,0,0,0,2.444,1.556,5.087,5.087,0,0,0,.667,5.333,4,4,0,0,0,2.222,8.667a4.858,4.858,0,0,0,1.111.667c-.444.222-1.111.667-1.556.889A4.318,4.318,0,0,0,0,13.778H0V14a4.48,4.48,0,0,0,.667,2.444,8.486,8.486,0,0,0,2,2A12.085,12.085,0,0,0,6.444,20a7.761,7.761,0,0,1,3.333,1.556,2.166,2.166,0,0,1,.889,2,2.735,2.735,0,0,1-1.111,2.222,8.706,8.706,0,0,1-2.889.444,4.344,4.344,0,0,1-3.111-.889,3.68,3.68,0,0,1-1.111-2.667H0a4.466,4.466,0,0,0,.889,2.889,5.433,5.433,0,0,0,2.444,2,9.212,9.212,0,0,0,3.556.667,6.26,6.26,0,0,0,4.667-1.556,5.087,5.087,0,0,0,1.778-3.778,4,4,0,0,0-1.556-3.333A1.921,1.921,0,0,1,10.444,18.889ZM3.556,11.778a4.344,4.344,0,0,1,3.111-.889A2.819,2.819,0,0,1,8,11.111a8.516,8.516,0,0,1,2.444,1.111,2.577,2.577,0,0,1,.889,2.222,2.853,2.853,0,0,1-.889,2.222,5.886,5.886,0,0,1-3.111.667A2.819,2.819,0,0,1,6,17.111,5.015,5.015,0,0,1,3.556,16h0a.478.478,0,0,1-.444-.444,2.394,2.394,0,0,1-.444-1.778h0A2.166,2.166,0,0,1,3.556,11.778Z" transform="translate(41 1284.478)"/>
  </g>
</svg>
