<svg xmlns="http://www.w3.org/2000/svg" width="48.5" height="48.5" viewBox="0 0 48.5 48.5">
  <defs>
    <style>
      .cls-2 {
        fill: none;
        stroke: #fff;
        stroke-linecap: square;
        stroke-width: 3px;
      }
      .cls-3 path {
        fill: #fff;
      }
    </style>
  </defs>
  <g id="icon_fb_weiss" transform="translate(-39 -177)">
    <g id="Gruppe_596" data-name="Gruppe 596">
      <g id="Gruppe_595" data-name="Gruppe 595" transform="translate(-1.5 146.5)">
        <g id="Gruppe_579" data-name="Gruppe 579">
          <line id="Linie_78" data-name="Linie 78" class="cls-2" x2="10" transform="translate(52.5 32.5) rotate(180)"/>
          <line id="Linie_79" data-name="Linie 79" class="cls-2" x2="10" transform="translate(52.5 77.5) rotate(180)"/>
          <line id="Linie_80" data-name="Linie 80" class="cls-2" y1="45" transform="translate(42.5 77.5) rotate(180)"/>
        </g>
        <g id="Gruppe_580" data-name="Gruppe 580" transform="translate(130 110) rotate(180)">
          <line id="Linie_78-2" data-name="Linie 78" class="cls-2" x2="10" transform="translate(52.5 32.5) rotate(180)"/>
          <line id="Linie_79-2" data-name="Linie 79" class="cls-2" x2="10" transform="translate(52.5 77.5) rotate(180)"/>
          <line id="Linie_80-2" data-name="Linie 80" class="cls-2" y1="45" transform="translate(42.5 77.5) rotate(180)"/>
        </g>
      </g>
    </g>
    <g id="facebook-letter-logo" class="cls-3" transform="translate(-56.696 188.999)">
      <path id="Facebook" d="M117.071,4.56V7.8H114.7v3.964h2.375V23.543h4.878V11.766h3.273s.307-1.9.455-3.978h-3.71V5.077a1.151,1.151,0,0,1,1.058-.95h2.658V0h-3.614C116.95,0,117.071,3.968,117.071,4.56Z" transform="translate(0 0)"/>
    </g>
  </g>
</svg>
