<svg xmlns="http://www.w3.org/2000/svg" width="48.5" height="48.5" viewBox="0 0 48.5 48.5">
  <defs>
    <style>
      .cls-2 {
        fill: none;
        stroke: #fff;
        stroke-linecap: square;
        stroke-width: 3px;
      }
      .cls-3 {
        fill-rule: evenodd;
        fill: #fff;
      }
    </style>
  </defs>
  <g id="Symbol_91_2" data-name="Symbol 91 – 2" transform="translate(-635 -844)">
    <g id="Gruppe_2272" data-name="Gruppe 2272" transform="translate(596 667)">
      <g id="Gruppe_595" data-name="Gruppe 595" transform="translate(-1.5 146.5)">
        <g id="Gruppe_579" data-name="Gruppe 579">
          <line id="Linie_78" data-name="Linie 78" class="cls-2" x2="10" transform="translate(52.5 32.5) rotate(180)"/>
          <line id="Linie_79" data-name="Linie 79" class="cls-2" x2="10" transform="translate(52.5 77.5) rotate(180)"/>
          <line id="Linie_80" data-name="Linie 80" class="cls-2" y1="45" transform="translate(42.5 77.5) rotate(180)"/>
        </g>
        <g id="Gruppe_580" data-name="Gruppe 580" transform="translate(130 110) rotate(180)">
          <line id="Linie_78-2" data-name="Linie 78" class="cls-2" x2="10" transform="translate(52.5 32.5) rotate(180)"/>
          <line id="Linie_79-2" data-name="Linie 79" class="cls-2" x2="10" transform="translate(52.5 77.5) rotate(180)"/>
          <line id="Linie_80-2" data-name="Linie 80" class="cls-2" y1="45" transform="translate(42.5 77.5) rotate(180)"/>
        </g>
      </g>
    </g>
    <g id="pinterest-round" transform="translate(645 854.034)">
      <path id="Pfad_1316" data-name="Pfad 1316" class="cls-3" d="M14.156-.032A14.154,14.154,0,0,0,9,27.3a13.564,13.564,0,0,1,.051-4.06c.256-1.1,1.661-7.034,1.661-7.034a5.148,5.148,0,0,1-.421-2.1c0-1.967,1.142-3.439,2.559-3.439a1.779,1.779,0,0,1,1.793,1.991c0,1.213-.772,3.031-1.174,4.71a2.051,2.051,0,0,0,2.093,2.559c2.514,0,4.449-2.656,4.449-6.485A5.589,5.589,0,0,0,14.1,7.688a6.124,6.124,0,0,0-6.389,6.146,5.471,5.471,0,0,0,1.054,3.229.417.417,0,0,1,.1.408c-.108.447-.345,1.411-.4,1.607-.063.262-.2.312-.472.192-1.768-.823-2.871-3.409-2.871-5.482,0-4.469,3.241-8.566,9.35-8.566,4.908,0,8.725,3.5,8.725,8.176,0,4.877-3.076,8.808-7.346,8.808a3.787,3.787,0,0,1-3.244-1.628s-.709,2.7-.88,3.364a15.6,15.6,0,0,1-1.761,3.709A14.16,14.16,0,1,0,14.159-.034l0,0Z" transform="translate(0)"/>
    </g>
  </g>
</svg>
